<?xml version="1.0" encoding="utf-8"?>
<svg viewBox="0 0 500 500" xmlns="http://www.w3.org/2000/svg">
  <style type="text/css">
		.st0 {
			fill: #B247B2;
		}
		.st1 {
			fill: #ADD322;
		}
		@media (prefers-color-scheme: dark) {
			.st0 {
				fill: #ADD322;
			}
			.st1 {
				fill: #B247B2;
			}
		}
	</style>
  <circle class="st0" cx="250.3" cy="250.3" r="250"/>
  <g id="Artboard11" transform="matrix(0.419366, 0, 0, 0.419366, 49.133625, 25.634342)" style="">
    <g transform="matrix(3.16293,0,0,3.16293,-1207.06,-2153.16)">
      <g id="Layer2">
        <g>
          <path d="M477.514,895.76C477.514,902.841 475.189,908.533 470.704,912.899C466.25,917.236 460.536,919.482 453.504,919.482C446.439,919.482 440.763,917.215 436.406,912.858C432.049,908.501 429.782,902.825 429.782,895.76L429.782,787.76C429.782,780.695 432.049,775.019 436.406,770.662C440.763,766.305 446.439,764.038 453.504,764.038C461.447,764.038 467.327,766.222 471.299,770.135C475.291,774.069 477.514,779.892 477.514,787.76L477.514,895.76ZM468.662,895.76L468.662,787.76C468.662,782.762 467.621,778.94 465.085,776.441C462.528,773.921 458.619,772.89 453.504,772.89C449.049,772.89 445.413,774.174 442.666,776.922C439.918,779.669 438.634,783.305 438.634,787.76L438.634,895.76C438.634,900.215 439.918,903.851 442.666,906.598C445.413,909.346 449.049,910.63 453.504,910.63C457.992,910.63 461.686,909.324 464.528,906.557C467.339,903.819 468.662,900.199 468.662,895.76ZM453.504,702.406C461.243,702.406 467.905,705.182 473.482,710.758C479.058,716.335 481.834,722.997 481.834,730.736C481.834,738.475 479.058,745.137 473.482,750.714C467.905,756.29 461.243,759.066 453.504,759.066C445.765,759.066 439.103,756.29 433.526,750.714C427.95,745.137 425.174,738.475 425.174,730.736C425.174,722.997 427.95,716.335 433.526,710.758C439.103,705.182 445.765,702.406 453.504,702.406ZM453.504,711.258C448.187,711.258 443.617,713.186 439.786,717.018C435.954,720.849 434.026,725.419 434.026,730.736C434.026,736.053 435.954,740.623 439.786,744.454C443.617,748.286 448.187,750.214 453.504,750.214C458.821,750.214 463.391,748.286 467.222,744.454C471.054,740.623 472.982,736.053 472.982,730.736C472.982,725.419 471.054,720.849 467.222,717.018C463.391,713.186 458.821,711.258 453.504,711.258Z" style="fill: rgb(255, 255, 255);"/>
          <path d="M637.824,982.842L636.672,982.842C617.756,982.842 601.938,976.437 589.19,963.69C576.443,950.942 570.038,935.124 570.038,916.208L570.038,902.681L569.75,830.402C569.75,830.396 569.75,830.39 569.75,830.384C569.75,825.266 567.923,820.887 564.278,817.242C560.633,813.597 556.254,811.77 551.136,811.77C545.832,811.77 541.338,813.543 537.672,817.131C534.032,820.694 532.234,825.118 532.234,830.384L532.234,895.76C532.234,902.841 529.909,908.533 525.424,912.899C520.97,917.236 515.256,919.482 508.224,919.482C501.159,919.482 495.483,917.215 491.126,912.858C486.769,908.501 484.502,902.825 484.502,895.76L484.502,830.384C484.502,811.662 490.953,795.933 503.811,783.178C516.659,770.432 532.429,764.038 551.136,764.038C569.843,764.038 585.613,770.432 598.461,783.178C611.319,795.933 617.77,811.662 617.77,830.384L617.77,916.208C617.77,921.5 619.584,925.981 623.242,929.638C626.899,933.296 631.38,935.11 636.672,935.11L637.824,935.11C644.873,935.11 650.602,937.414 655.066,941.878C659.53,946.342 661.834,952.071 661.834,959.12C661.834,966.201 659.509,971.893 655.024,976.259C650.57,980.596 644.856,982.842 637.824,982.842ZM637.824,973.99C642.312,973.99 646.006,972.684 648.848,969.917C651.659,967.179 652.982,963.559 652.982,959.12C652.982,954.649 651.638,950.97 648.806,948.138C645.974,945.306 642.295,943.962 637.824,943.962L636.672,943.962C628.908,943.962 622.349,941.264 616.982,935.898C611.616,930.531 608.918,923.972 608.918,916.208L608.918,830.384C608.918,814.162 603.369,800.515 592.227,789.462C581.075,778.4 567.373,772.89 551.136,772.89C534.899,772.89 521.197,778.4 510.045,789.462C498.903,800.515 493.354,814.162 493.354,830.384L493.354,895.76C493.354,900.215 494.638,903.851 497.386,906.598C500.133,909.346 503.769,910.63 508.224,910.63C512.712,910.63 516.406,909.324 519.248,906.557C522.059,903.819 523.382,900.199 523.382,895.76L523.382,830.384C523.382,822.594 526.096,816.074 531.48,810.805C536.838,805.561 543.384,802.918 551.136,802.918C558.69,802.918 565.159,805.603 570.538,810.982C575.915,816.359 578.6,822.824 578.602,830.373L578.89,902.654C578.89,902.66 578.89,902.666 578.89,902.672L578.89,916.208C578.89,932.62 584.389,946.37 595.45,957.43C606.51,968.491 620.26,973.99 636.672,973.99L637.824,973.99Z" style="fill: rgb(255, 255, 255);"/>
        </g>
      </g>
    </g>
  </g>
</svg>