<?xml version="1.0" encoding="UTF-8" standalone="no"?>
<!DOCTYPE svg PUBLIC "-//W3C//DTD SVG 1.1//EN" "http://www.w3.org/Graphics/SVG/1.1/DTD/svg11.dtd">
<svg width="100%" height="100%" viewBox="0 0 1024 1024" version="1.1" xmlns="http://www.w3.org/2000/svg" xmlns:xlink="http://www.w3.org/1999/xlink" xml:space="preserve" xmlns:serif="http://www.serif.com/" style="fill-rule:evenodd;clip-rule:evenodd;stroke-linejoin:round;stroke-miterlimit:2;">
    <rect id="Artboard1" x="0" y="0" width="1024" height="1024" style="fill:none;"/>
    <g id="Artboard11" serif:id="Artboard1">
        <g transform="matrix(3.16293,0,0,3.16293,-1207.06,-2153.16)">
            <g id="Layer2">
                <g>
                    <path d="M474.977,761.344C475.934,762.069 476.83,762.847 477.667,763.672C483.155,769.079 486.588,776.946 486.588,787.76L486.588,895.76C486.588,905.55 483.234,913.363 477.034,919.4C470.928,925.346 463.145,928.556 453.504,928.556C443.764,928.556 435.996,925.28 429.99,919.274C423.984,913.268 420.708,905.5 420.708,895.76L420.708,787.76C420.708,778.02 423.984,770.252 429.99,764.246C430.857,763.379 431.76,762.569 432.701,761.818C430.753,760.472 428.89,758.909 427.11,757.13C419.745,749.765 416.1,740.957 416.1,730.736C416.1,720.515 419.745,711.707 427.11,704.342C434.475,696.977 443.283,693.332 453.504,693.332C463.725,693.332 472.533,696.977 479.898,704.342C487.263,711.707 490.908,720.515 490.908,730.736C490.908,740.957 487.263,749.765 479.898,757.13C478.324,758.704 476.683,760.109 474.977,761.344ZM459.588,895.76L459.588,787.76C459.588,785.683 459.771,783.943 458.717,782.904C457.599,781.802 455.741,781.964 453.504,781.964C451.72,781.964 450.182,782.238 449.082,783.338C447.982,784.438 447.708,785.976 447.708,787.76L447.708,895.76C447.708,897.544 447.982,899.082 449.082,900.182C450.182,901.282 451.72,901.556 453.504,901.556C455.386,901.556 457.006,901.216 458.198,900.056C459.296,898.987 459.588,897.494 459.588,895.76ZM453.504,720.332C450.669,720.332 448.245,721.391 446.202,723.434C444.159,725.477 443.1,727.901 443.1,730.736C443.1,733.571 444.159,735.995 446.202,738.038C448.245,740.081 450.669,741.14 453.504,741.14C456.339,741.14 458.763,740.081 460.806,738.038C462.849,735.995 463.908,733.571 463.908,730.736C463.908,727.901 462.849,725.477 460.806,723.434C458.763,721.391 456.339,720.332 453.504,720.332Z" style="fill:rgb(243,73,231);"/>
                    <path d="M473.088,895.76C473.088,901.52 471.264,906.176 467.616,909.728C463.968,913.28 459.264,915.056 453.504,915.056C447.744,915.056 443.088,913.28 439.536,909.728C435.984,906.176 434.208,901.52 434.208,895.76L434.208,787.76C434.208,782 435.984,777.344 439.536,773.792C443.088,770.24 447.744,768.464 453.504,768.464C466.56,768.464 473.088,774.896 473.088,787.76L473.088,895.76ZM453.504,706.832C446.976,706.832 441.36,709.184 436.656,713.888C431.952,718.592 429.6,724.208 429.6,730.736C429.6,737.264 431.952,742.88 436.656,747.584C441.36,752.288 446.976,754.64 453.504,754.64C460.032,754.64 465.648,752.288 470.352,747.584C475.056,742.88 477.408,737.264 477.408,730.736C477.408,724.208 475.056,718.592 470.352,713.888C465.648,709.184 460.032,706.832 453.504,706.832Z" style="fill:rgb(88,22,58);fill-rule:nonzero;"/>
                    <path d="M637.824,991.916L636.672,991.916C615.191,991.916 597.251,984.582 582.774,970.106C568.298,955.629 560.964,937.689 560.964,916.208L560.964,902.699L560.676,830.438C560.676,830.42 560.676,830.402 560.676,830.384C560.676,827.763 559.729,825.525 557.862,823.658C555.995,821.791 553.757,820.844 551.136,820.844C548.34,820.844 545.951,821.725 544.019,823.616C542.166,825.429 541.308,827.704 541.308,830.384L541.308,895.76C541.308,905.55 537.954,913.363 531.754,919.4C525.648,925.346 517.865,928.556 508.224,928.556C498.484,928.556 490.716,925.28 484.71,919.274C478.704,913.268 475.428,905.5 475.428,895.76L475.428,830.384C475.428,809.101 482.803,791.236 497.42,776.736C512.008,762.265 529.896,754.964 551.136,754.964C572.376,754.964 590.264,762.265 604.852,776.736C619.469,791.236 626.844,809.101 626.844,830.384L626.844,916.208C626.844,918.966 627.752,921.316 629.658,923.222C631.564,925.128 633.914,926.036 636.672,926.036L637.824,926.036C647.515,926.036 655.344,929.324 661.482,935.462C667.62,941.6 670.908,949.429 670.908,959.12C670.908,968.91 667.554,976.723 661.354,982.76C655.248,988.706 647.465,991.916 637.824,991.916ZM637.824,964.916C639.706,964.916 641.326,964.576 642.518,963.416C643.616,962.347 643.908,960.854 643.908,959.12C643.908,957.289 643.55,955.714 642.39,954.554C641.23,953.394 639.655,953.036 637.824,953.036L636.672,953.036C626.374,953.036 617.684,949.432 610.566,942.314C603.448,935.196 599.844,926.506 599.844,916.208L599.844,830.384C599.844,816.723 595.219,805.212 585.836,795.904C576.424,786.567 564.84,781.964 551.136,781.964C537.432,781.964 525.848,786.567 516.436,795.904C507.053,805.212 502.428,816.723 502.428,830.384L502.428,895.76C502.428,897.544 502.702,899.082 503.802,900.182C504.902,901.282 506.44,901.556 508.224,901.556C510.106,901.556 511.726,901.216 512.918,900.056C514.016,898.987 514.308,897.494 514.308,895.76L514.308,830.384C514.308,820.008 517.962,811.339 525.133,804.32C532.225,797.379 540.875,793.844 551.136,793.844C561.187,793.844 569.797,797.409 576.954,804.566C584.104,811.716 587.668,820.315 587.676,830.351L587.964,902.618C587.964,902.636 587.964,902.654 587.964,902.672L587.964,916.208C587.964,930.055 592.534,941.682 601.866,951.014C611.198,960.346 622.825,964.916 636.672,964.916L637.824,964.916Z" style="fill:rgb(243,73,231);"/>
                    <path d="M637.824,978.416L636.672,978.416C619.008,978.416 604.224,972.464 592.32,960.56C580.416,948.656 574.464,933.872 574.464,916.208L574.464,902.672L574.176,830.384C574.176,824.048 571.92,818.624 567.408,814.112C562.896,809.6 557.472,807.344 551.136,807.344C544.608,807.344 539.088,809.552 534.576,813.968C530.064,818.384 527.808,823.856 527.808,830.384L527.808,895.76C527.808,901.52 525.984,906.176 522.336,909.728C518.688,913.28 513.984,915.056 508.224,915.056C502.464,915.056 497.808,913.28 494.256,909.728C490.704,906.176 488.928,901.52 488.928,895.76L488.928,830.384C488.928,812.912 494.928,798.224 506.928,786.32C518.928,774.416 533.664,768.464 551.136,768.464C568.608,768.464 583.344,774.416 595.344,786.32C607.344,798.224 613.344,812.912 613.344,830.384L613.344,916.208C613.344,922.736 615.6,928.256 620.112,932.768C624.624,937.28 630.144,939.536 636.672,939.536L637.824,939.536C643.584,939.536 648.288,941.36 651.936,945.008C655.584,948.656 657.408,953.36 657.408,959.12C657.408,964.88 655.584,969.536 651.936,973.088C648.288,976.64 643.584,978.416 637.824,978.416Z" style="fill:rgb(88,22,58);fill-rule:nonzero;"/>
                </g>
            </g>
        </g>
    </g>
</svg>
