<?xml version="1.0" encoding="utf-8"?>
<svg version="1.1" id="Layer_1" x="0px" y="0px" width="150px" height="60px" viewBox="0 0 150 60" style="enable-background:new 0 0 150 60;" xmlns="http://www.w3.org/2000/svg">
  <style type="text/css">
	.st0{fill:#FFFFFF;}
</style>
  <g id="Logo" transform="matrix(0.149316, 0, 0, 0.149394, -5.608509, -54.98035)" style="">
    <g transform="matrix(1,0,0,1,0,-0.576)">
      <path d="M71.748,432.16C63.492,432.16 56.484,429.28 50.724,423.52C44.964,417.76 42.084,410.752 42.084,402.496C42.084,394.24 44.964,387.232 50.724,381.472C56.484,375.712 63.492,372.832 71.748,372.832C80.004,372.832 87.012,375.712 92.772,381.472C98.532,387.232 101.412,394.24 101.412,402.496C101.412,410.752 98.532,417.76 92.772,423.52C87.012,429.28 80.004,432.16 71.748,432.16Z" style="fill:none;fill-rule:nonzero;stroke:white;stroke-width:7px;"/>
    </g>
    <g transform="matrix(1,0,0,1,-24.1,-12.424)">
      <path d="M113.992,598.376C109.192,603.176 103.144,605.576 95.848,605.576C88.552,605.576 82.552,603.224 77.848,598.52C73.144,593.816 70.792,587.816 70.792,580.52L70.792,472.52C70.792,465.224 73.144,459.224 77.848,454.52C82.552,449.816 88.552,447.464 95.848,447.464C103.336,447.464 109.432,449.768 114.136,454.376C118.84,458.984 121.192,465.032 121.192,472.52L121.192,580.52C121.192,587.816 118.792,593.768 113.992,598.376Z" style="fill:none;fill-rule:nonzero;stroke:white;stroke-width:7px;"/>
    </g>
    <path d="M328.98,522.304C324.372,526.912 318.42,529.216 311.124,529.216L291.78,529.216L291.78,567.52C291.78,574.816 289.38,580.816 284.58,585.52C279.78,590.224 273.732,592.576 266.436,592.576C259.14,592.576 253.14,590.224 248.436,585.52C243.732,580.816 241.38,574.816 241.38,567.52L241.38,443.392C241.38,424 247.86,407.824 260.82,394.864C273.78,381.904 289.956,375.424 309.348,375.424C328.548,375.424 344.628,381.952 357.588,395.008C370.548,408.064 377.028,424.192 377.028,443.392L377.028,445.408C377.028,452.704 374.676,458.752 369.972,463.552C365.268,468.352 359.268,470.752 351.972,470.752C344.868,470.752 338.868,468.304 333.972,463.408C329.076,458.512 326.628,452.512 326.628,445.408L326.628,443.392C326.628,438.4 324.996,434.224 321.732,430.864C318.468,427.504 314.34,425.824 309.348,425.824C304.356,425.824 300.18,427.504 296.82,430.864C293.46,434.224 291.78,438.4 291.78,443.392L291.78,478.816L311.124,478.816C318.42,478.816 324.42,481.216 329.124,486.016C333.828,490.816 336.18,496.864 336.18,504.16C336.18,511.456 333.78,517.504 328.98,522.304Z" style="fill:none;fill-rule:nonzero;stroke:white;stroke-width:7px;"/>
    <path d="M424.836,585.376C420.036,590.176 413.988,592.576 406.692,592.576C399.396,592.576 393.396,590.224 388.692,585.52C383.988,580.816 381.636,574.816 381.636,567.52L381.636,401.056C381.636,393.76 383.988,387.76 388.692,383.056C393.396,378.352 399.396,376 406.692,376C414.18,376 420.276,378.304 424.98,382.912C429.684,387.52 432.036,393.568 432.036,401.056L432.036,567.52C432.036,574.816 429.636,580.768 424.836,585.376Z" style="fill:none;fill-rule:nonzero;stroke:white;stroke-width:7px;"/>
    <path d="M504.036,592.576C484.644,592.576 468.468,586.096 455.508,573.136C442.548,560.176 436.068,544 436.068,524.608L436.068,460.096C436.068,452.8 438.42,446.752 443.124,441.952C447.828,437.152 453.828,434.752 461.124,434.752C468.42,434.752 474.468,437.152 479.268,441.952C484.068,446.752 486.468,452.8 486.468,460.096L486.468,524.608C486.468,529.6 488.148,533.776 491.508,537.136C494.868,540.496 499.044,542.176 504.036,542.176C509.028,542.176 513.156,540.496 516.42,537.136C519.684,533.776 521.316,529.6 521.316,524.608L521.316,459.52C521.316,452.224 523.716,446.224 528.516,441.52C533.316,436.816 539.364,434.464 546.66,434.464C553.956,434.464 559.956,436.816 564.66,441.52C569.364,446.224 571.716,452.224 571.716,459.52L571.716,524.608C571.716,543.808 565.236,559.936 552.276,572.992C539.316,586.048 523.236,592.576 504.036,592.576Z" style="fill:none;fill-rule:nonzero;stroke:white;stroke-width:7px;"/>
    <path d="M648.612,485.44C642.084,486.976 636.756,490.384 632.628,495.664C628.5,500.944 626.436,506.944 626.436,513.664C626.436,521.728 629.22,528.592 634.788,534.256C640.356,539.92 647.172,542.752 655.236,542.752L680.868,542.752C688.164,542.752 694.164,545.104 698.868,549.808C703.572,554.512 705.924,560.512 705.924,567.808C705.924,575.104 703.572,581.152 698.868,585.952C694.164,590.752 688.164,593.152 680.868,593.152L655.236,593.152C632.772,593.152 613.956,585.52 598.788,570.256C583.62,554.992 576.036,536.128 576.036,513.664C576.036,491.2 583.62,472.384 598.788,457.216C613.956,442.048 632.772,434.464 655.236,434.464C677.892,434.464 696.996,442.528 712.548,458.656C717.54,463.84 720.036,469.6 720.036,475.936C720.036,484 716.58,490.72 709.668,496.096L673.092,531.808C667.716,536.992 661.86,539.584 655.524,539.584C648.42,539.584 642.372,537.04 637.38,531.952C632.388,526.864 629.892,520.768 629.892,513.664C629.892,508.288 632.004,503.008 636.228,497.824L648.612,485.44Z" style="fill:none;fill-rule:nonzero;stroke:white;stroke-width:7px;"/>
    <path d="M701.28,649.503C699.891,649.76 698.378,649.888 696.692,649.888L254.916,648.936C235.524,648.936 219.348,642.456 206.388,629.496C193.428,616.536 186.948,607.36 186.948,587.968L186.948,574.432L186.66,502.144C186.66,497.344 184.98,493.264 181.62,489.904C178.26,486.544 174.18,484.864 169.38,484.864C164.388,484.864 160.212,486.496 156.852,489.76C153.492,493.024 151.812,497.152 151.812,502.144L151.812,567.52C151.812,574.816 149.412,580.816 144.612,585.52C139.812,590.224 133.764,592.576 126.468,592.576C119.172,592.576 113.172,590.224 108.468,585.52C103.764,580.816 101.412,574.816 101.412,567.52L101.412,502.144C101.412,482.944 107.94,466.864 120.996,453.904C134.052,440.944 150.18,434.464 169.38,434.464C188.58,434.464 204.708,440.944 217.764,453.904C230.82,466.864 237.348,482.944 237.348,502.144L237.348,587.968C237.348,592.96 239.185,594.803 241.38,596.608C244.084,598.832 249.924,598.536 254.916,598.536L339.973,598.718C340.995,598.562 342.14,598.484 343.456,598.484L706.264,599.112C711.266,599.112 717.118,599.408 719.828,597.184C722.027,595.379 723.868,593.536 723.868,588.544L723.868,502.72C723.868,483.52 730.409,467.44 743.492,454.48C756.575,441.52 772.736,435.04 791.976,435.04C811.216,435.04 827.377,441.52 840.46,454.48C853.543,467.44 860.084,483.52 860.084,502.72L860.084,568.096C860.084,575.392 857.727,581.392 853.013,586.096C848.3,590.8 842.287,593.152 834.976,593.152C827.665,593.152 821.605,590.8 816.795,586.096C811.985,581.392 809.58,575.392 809.58,568.096L809.58,502.72C809.58,497.728 807.897,493.6 804.53,490.336C801.163,487.072 796.978,485.44 791.976,485.44C787.166,485.44 783.078,487.12 779.711,490.48C776.344,493.84 774.66,497.92 774.66,502.72L774.372,575.008L774.372,588.544C774.372,607.936 767.878,617.112 754.892,630.072C741.905,643.032 725.696,649.512 706.264,649.512L701.28,649.503Z" style="fill:none;stroke:white;stroke-width:7px;"/>
    <g transform="matrix(1,0,0,1,12,0)">
      <path d="M959.716,503.008C954.465,509.284 933.654,536.615 928.732,542.176L960.228,542.176C967.524,542.176 973.524,544.576 978.228,549.376C982.932,554.176 985.284,560.224 985.284,567.52C985.284,574.624 982.884,580.576 978.084,585.376C973.284,590.176 967.332,592.576 960.228,592.576L879.588,592.576C861.732,592.576 852.804,586.336 852.804,573.856C852.804,562.912 862.116,546.304 880.74,524.032C885.924,517.888 932.42,444.8 950.084,424.832L449.7,425.176C442.596,425.176 436.644,424.728 431.844,419.832C427.044,414.936 424.644,407.936 424.644,400.832C424.644,393.536 426.996,388.536 431.7,383.832C436.404,379.128 442.404,376.032 449.7,376.032L998.084,376.032C1015.75,376.032 1025.16,395.99 1024.58,408.264C1024.08,418.832 985.802,471.832 959.716,503.008Z" style="fill:none;fill-rule:nonzero;stroke:white;stroke-width:7px;"/>
    </g>
  </g>
</svg>